<svg xmlns="http://www.w3.org/2000/svg" viewBox="0 0 225.73 150.62"><defs><style>.cls-1{fill:#1c4c96;}.cls-2{fill:#f90;}</style></defs><title>Recurso 4</title><g id="Capa_2" data-name="Capa 2"><g id="Capa_2-2" data-name="Capa 2"><path class="cls-1" d="M50.6,34.54S30.08,57.1,0,56.63l68.14,94s50.13.16,55.77-29Z"/><path class="cls-1" d="M124.18,62.86,183.28,121c-6.11,3.29-17.94,2.38-24.91,0-9.28-3.17-28.66,0-28.66,0L55,34.54l50.94,4,4.45,7.24-7,37Z"/><path class="cls-1" d="M133.8,19.05,144.74,0l81,84L187,118.9,131.35,61.8s24.36,3.42,25.38-11.39l1.17-15.87c0-2.27.44-2.46-1.41-6.7-2.2-5.05-5.4-8.09-10.92-8.22Z"/></g><g id="Capa_6" data-name="Capa 6"><path class="cls-2" d="M115.36,32.09h0A12.44,12.44,0,0,1,128,22.36l16.7.61a8.5,8.5,0,0,1,3.57.91C155.1,27.47,155,35,155,35s-.65,7.53-1.85,15.23-11.38,8.41-11.38,8.41-12.34,1.13-15.31,1-3.6,1.37-3.6,1.37L105.67,78.33l9.69-46.24Zm21.18.88c-5,0-8.08,4.57-8.42,5.08a15.64,15.64,0,0,0-1.94,5.43,31.46,31.46,0,0,0-.84,7.24c1.16,0,12.22-.47,15.79-7.73.27-.53,2.63-5.47.35-8.21C140,33,137.41,33,136.54,33Z"/></g></g></svg>